<mxfile host="app.diagrams.net" agent="Mozilla/5.0 (Windows NT 10.0; Win64; x64) AppleWebKit/537.36 (KHTML, like Gecko) Chrome/127.0.0.0 Safari/537.36" version="24.7.7">
  <diagram name="Page-1" id="YAEVpcPzzc_q-mBe14_t">
    <mxGraphModel dx="1434" dy="738" grid="1" gridSize="10" guides="1" tooltips="1" connect="1" arrows="1" fold="1" page="1" pageScale="1" pageWidth="850" pageHeight="1100" math="0" shadow="0">
      <root>
        <mxCell id="0" />
        <mxCell id="1" parent="0" />
        <mxCell id="5wintzvDErzxGzjBbFwN-18" style="edgeStyle=orthogonalEdgeStyle;rounded=0;orthogonalLoop=1;jettySize=auto;html=1;exitX=0.5;exitY=1;exitDx=0;exitDy=0;entryX=0.5;entryY=0;entryDx=0;entryDy=0;" edge="1" parent="1" source="5wintzvDErzxGzjBbFwN-1" target="5wintzvDErzxGzjBbFwN-13">
          <mxGeometry relative="1" as="geometry" />
        </mxCell>
        <mxCell id="5wintzvDErzxGzjBbFwN-1" value="Vendor Registration" style="rounded=1;whiteSpace=wrap;html=1;" vertex="1" parent="1">
          <mxGeometry x="380" y="100" width="120" height="60" as="geometry" />
        </mxCell>
        <mxCell id="5wintzvDErzxGzjBbFwN-20" style="edgeStyle=orthogonalEdgeStyle;rounded=0;orthogonalLoop=1;jettySize=auto;html=1;exitX=1;exitY=0.5;exitDx=0;exitDy=0;entryX=0;entryY=0.5;entryDx=0;entryDy=0;" edge="1" parent="1" source="5wintzvDErzxGzjBbFwN-11" target="5wintzvDErzxGzjBbFwN-12">
          <mxGeometry relative="1" as="geometry" />
        </mxCell>
        <mxCell id="5wintzvDErzxGzjBbFwN-11" value="Name" style="rounded=1;whiteSpace=wrap;html=1;" vertex="1" parent="1">
          <mxGeometry x="150" y="200" width="100" height="40" as="geometry" />
        </mxCell>
        <mxCell id="5wintzvDErzxGzjBbFwN-21" style="edgeStyle=orthogonalEdgeStyle;rounded=0;orthogonalLoop=1;jettySize=auto;html=1;exitX=1;exitY=0.5;exitDx=0;exitDy=0;entryX=0;entryY=0.5;entryDx=0;entryDy=0;" edge="1" parent="1" source="5wintzvDErzxGzjBbFwN-12" target="5wintzvDErzxGzjBbFwN-13">
          <mxGeometry relative="1" as="geometry" />
        </mxCell>
        <mxCell id="5wintzvDErzxGzjBbFwN-12" value="Email&lt;br&gt;With Verification" style="rounded=1;whiteSpace=wrap;html=1;" vertex="1" parent="1">
          <mxGeometry x="270" y="200" width="100" height="40" as="geometry" />
        </mxCell>
        <mxCell id="5wintzvDErzxGzjBbFwN-22" style="edgeStyle=orthogonalEdgeStyle;rounded=0;orthogonalLoop=1;jettySize=auto;html=1;exitX=1;exitY=0.5;exitDx=0;exitDy=0;entryX=0;entryY=0.5;entryDx=0;entryDy=0;" edge="1" parent="1" source="5wintzvDErzxGzjBbFwN-13" target="5wintzvDErzxGzjBbFwN-14">
          <mxGeometry relative="1" as="geometry" />
        </mxCell>
        <mxCell id="5wintzvDErzxGzjBbFwN-13" value="Phone&lt;br&gt;With Verification" style="rounded=1;whiteSpace=wrap;html=1;" vertex="1" parent="1">
          <mxGeometry x="390" y="200" width="100" height="40" as="geometry" />
        </mxCell>
        <mxCell id="5wintzvDErzxGzjBbFwN-23" style="edgeStyle=orthogonalEdgeStyle;rounded=0;orthogonalLoop=1;jettySize=auto;html=1;exitX=1;exitY=0.5;exitDx=0;exitDy=0;entryX=0;entryY=0.5;entryDx=0;entryDy=0;" edge="1" parent="1" source="5wintzvDErzxGzjBbFwN-14" target="5wintzvDErzxGzjBbFwN-15">
          <mxGeometry relative="1" as="geometry" />
        </mxCell>
        <mxCell id="5wintzvDErzxGzjBbFwN-14" value="Select Country" style="rounded=1;whiteSpace=wrap;html=1;" vertex="1" parent="1">
          <mxGeometry x="510" y="200" width="100" height="40" as="geometry" />
        </mxCell>
        <mxCell id="5wintzvDErzxGzjBbFwN-15" value="Select Currency" style="rounded=1;whiteSpace=wrap;html=1;" vertex="1" parent="1">
          <mxGeometry x="631" y="200" width="100" height="40" as="geometry" />
        </mxCell>
        <mxCell id="5wintzvDErzxGzjBbFwN-25" style="edgeStyle=orthogonalEdgeStyle;rounded=0;orthogonalLoop=1;jettySize=auto;html=1;exitX=0.5;exitY=1;exitDx=0;exitDy=0;entryX=1;entryY=0.5;entryDx=0;entryDy=0;" edge="1" parent="1" source="5wintzvDErzxGzjBbFwN-16" target="5wintzvDErzxGzjBbFwN-15">
          <mxGeometry relative="1" as="geometry" />
        </mxCell>
        <mxCell id="5wintzvDErzxGzjBbFwN-26" style="edgeStyle=orthogonalEdgeStyle;rounded=0;orthogonalLoop=1;jettySize=auto;html=1;exitX=1;exitY=0.5;exitDx=0;exitDy=0;entryX=0;entryY=0.5;entryDx=0;entryDy=0;" edge="1" parent="1" source="5wintzvDErzxGzjBbFwN-16" target="5wintzvDErzxGzjBbFwN-17">
          <mxGeometry relative="1" as="geometry" />
        </mxCell>
        <mxCell id="5wintzvDErzxGzjBbFwN-16" value="Upload Profile Image" style="rounded=1;whiteSpace=wrap;html=1;" vertex="1" parent="1">
          <mxGeometry x="330" y="260" width="100" height="40" as="geometry" />
        </mxCell>
        <mxCell id="5wintzvDErzxGzjBbFwN-17" value="Add Address" style="rounded=1;whiteSpace=wrap;html=1;" vertex="1" parent="1">
          <mxGeometry x="450" y="260" width="100" height="40" as="geometry" />
        </mxCell>
      </root>
    </mxGraphModel>
  </diagram>
</mxfile>
